usemtl RamLight
v 350 650.1925700462737 -200.05000001893913
v 349.9567 650.1925700462737 -199.9750000189391
v 350.0433 650.1925700462737 -199.9750000189391
f 1 2 3
v 350 650.1925700462737 -200.05000001893913
v 349.9567 650.1925700462737 -199.9750000189391
v 350.0433 650.1925700462737 -199.9750000189391
f 4 5 6
v 350 650.1925700462737 -200.05000001893913
v 349.9567 650.1925700462737 -199.9750000189391
v 350.0433 650.1925700462737 -199.9750000189391
f 7 8 9
v 350 650.1925700462737 -200.05000001893913
v 349.9567 650.1925700462737 -199.9750000189391
v 350.0433 650.1925700462737 -199.9750000189391
f 10 11 12
v 350 650.1925700462737 -200.05000001893913
v 349.9567 650.1925700462737 -199.9750000189391
v 350.0433 650.1925700462737 -199.9750000189391
f 13 14 15
v 459.19394378184245 650.1925700462737 -200.05000001893913
v 459.15064378184246 650.1925700462737 -199.9750000189391
v 459.23724378184244 650.1925700462737 -199.9750000189391
f 16 17 18
v 383.7427798956246 650.1925503780677 -96.2004018356472
v 383.6994798956246 650.1925503780677 -96.1254018356472
v 383.7860798956246 650.1925503780677 -96.1254018356472
f 19 20 21
v 261.6602509425612 650.1925578906533 -135.86741541538834
v 261.61695094256123 650.1925578906533 -135.79241541538832
v 261.7035509425612 650.1925578906533 -135.79241541538832
f 22 23 24
v 261.66023665277135 650.1925822018959 -264.23259500462996
v 261.61693665277136 650.1925822018959 -264.15759500462997
v 261.70353665277133 650.1925822018959 -264.15759500462997
f 25 26 27
v 383.7427887272004 650.1925897144846 -303.89962538302666
v 383.6994887272004 650.1925897144846 -303.82462538302667
v 383.78608872720037 650.1925897144846 -303.82462538302667
f 28 29 30
v 812.5529685911752 650.1925700462737 -200.05000001893913
v 812.5096685911751 650.1925700462737 -199.9750000189391
v 812.5962685911752 650.1925700462737 -199.9750000189391
f 31 32 33
v 492.93664885519917 650.1924867304518 239.86377102170727
v 492.8933488551992 650.1924867304518 239.93877102170728
v 492.97994885519915 650.1924867304518 239.93877102170728
f 34 35 36
v -24.21308417894818 650.1925185542531 71.83172017311692
v -24.256384178948178 650.1925185542531 71.90672017311692
v -24.16978417894818 650.1925185542531 71.90672017311692
f 37 38 39
v -24.213340598823436 650.1926215383295 -471.9319065109394
v -24.256640598823434 650.1926215383295 -471.85690651093944
v -24.170040598823437 650.1926215383295 -471.85690651093944
f 40 41 42
v 492.93680733139735 650.1926533621878 -639.9642587991721
v 492.89350733139736 650.1926533621878 -639.8892587991721
v 492.98010733139733 650.1926533621878 -639.8892587991721
f 43 44 45
v 1653.1603112823627 76.54935780697186 -200.099727966876
v 1653.1170112823627 76.54935780697186 -200.024727966876
v 1653.2036112823628 76.54935780697186 -200.024727966876
f 46 47 48
v 602.2036637585082 234.81737474343902 576.2530639648438
v 602.1603637585082 234.81737474343902 576.3280639648438
v 602.2469637585083 234.81737474343902 576.3280639648438
f 49 50 51
v -547.7660977121166 139.52400286100283 452.13076455836944
v -547.8093977121166 139.52400286100283 452.2057645583694
v -547.7227977121165 139.52400286100283 452.2057645583694
f 52 53 54
v -548.2743090007872 139.27065343133492 -852.7191764160565
v -548.3176090007872 139.27065343133492 -852.6441764160566
v -548.2310090007871 139.27065343133492 -852.6441764160566
f 55 56 57
v 613.9044559422824 222.5449843628136 -1012.2219305644049
v 613.8611559422824 222.5449843628136 -1012.146930564405
v 613.9477559422825 222.5449843628136 -1012.146930564405
f 58 59 60
v 583.0741129845995 179.24900426758754 -200.11415860225136
v 583.0308129845995 179.24900426758754 -200.03915860225135
v 583.1174129845996 179.24900426758754 -200.03915860225135
f 61 62 63
v 438.9496325100398 103.74334455834598 73.70058917066291
v 438.9063325100398 103.74334455834598 73.77558917066291
v 438.9929325100398 103.74334455834598 73.77558917066291
f 64 65 66
v 160.70518879316407 178.05425019979066 -62.52655370044933
v 160.66188879316408 178.05425019979066 -62.45155370044933
v 160.74848879316406 178.05425019979066 -62.45155370044933
f 67 68 69
v 133.76735933282524 132.00289670131022 -357.14676446989273
v 133.72405933282525 132.00289670131022 -357.07176446989274
v 133.81065933282522 132.00289670131022 -357.07176446989274
f 70 71 72
v 462.60994577082596 -1.4720696452734172 -546.627776204744
v 462.56664577082597 -1.4720696452734172 -546.5527762047441
v 462.65324577082595 -1.4720696452734172 -546.5527762047441
f 73 74 75